<?xml version="1.0" encoding="UTF-8"?>
<!DOCTYPE svg PUBLIC "-//W3C//DTD SVG 1.1//EN" "http://www.w3.org/Graphics/SVG/1.1/DTD/svg11.dtd">
<!-- Creator: CorelDRAW 2021.5 -->
<svg xmlns="http://www.w3.org/2000/svg" xml:space="preserve" width="225.907mm" height="34.8018mm" version="1.1" style="shape-rendering:geometricPrecision; text-rendering:geometricPrecision; image-rendering:optimizeQuality; fill-rule:evenodd; clip-rule:evenodd"
viewBox="0 0 17736.5 2732.37"
 xmlns:xlink="http://www.w3.org/1999/xlink"
 xmlns:xodm="http://www.corel.com/coreldraw/odm/2003">
 <defs>
  <style type="text/css">
   <![CDATA[
    .fil0 {fill:#FEFEFE}
    .fil1 {fill:#FCFF10}
    .fil2 {fill:black;fill-rule:nonzero}
   ]]>
  </style>
 </defs>
 <g id="Katman_x0020_1">
  <metadata id="CorelCorpID_0Corel-Layer"/>
  <path class="fil0" d="M8570.16 2230.84l1404.84 0c215.02,0 406.46,-150.23 447.69,-347.54l38.28 -179.65c38.27,-182.62 -47.12,-315.14 -223.83,-329.86l-1045.54 -106.04c-53.01,-5.9 -67.73,-41.22 -61.88,-79.52l11.81 -41.22c11.79,-55.97 55.96,-82.47 114.86,-82.47l1278.2 0 76.58 -365.22 -1384.23 0c-235.62,0 -412.35,138.44 -459.49,359.34l-35.31 167.88c-41.23,194.38 47.12,315.13 223.84,332.81l1045.54 100.13c53.01,8.83 70.68,35.35 61.84,79.53l-8.83 50.05c-11.79,50.07 -58.9,76.57 -111.91,76.57l-1292.94 0 -79.53 365.22zm-1725.14 0l759.87 0c97.17,0 206.16,-53.03 256.23,-111.94l-23.55 111.94 391.69 0 323.97 -1531.53 -391.7 0 -206.17 968.98c-26.51,111.9 -138.41,197.32 -250.32,197.32l-674.46 0c-111.93,0 -173.76,-85.42 -153.15,-179.64l209.09 -986.67 -394.64 0 -229.73 1083.84c-61.85,285.69 94.23,447.69 382.87,447.69zm-2029.98 0l1257.6 0 76.57 -365.22 -1172.19 0c-111.91,0 -167.88,-73.61 -150.19,-156.08l100.12 -468.3c20.63,-108.97 100.13,-176.7 220.89,-176.7l1160.4 0 79.53 -365.22 -1239.93 0c-315.14,0 -536.02,170.84 -597.86,465.34l-132.53 621.44c-58.9,285.68 100.12,444.74 397.59,444.74zm-2011.57 -365.22c-108.99,0 -161.97,-76.57 -144.32,-156.08l100.13 -471.23c23.57,-106.03 97.21,-173.76 212.07,-173.76l718.62 0c111.93,0 167.88,61.84 144.33,173.76l-100.13 471.23c-17.68,82.47 -97.21,156.08 -209.13,156.08l-721.56 0zm-144.32 365.22l857.06 0c297.46,0 536.01,-167.9 594.93,-453.57l132.54 -615.55c61.84,-291.56 -94.26,-462.4 -409.38,-462.4l-848.22 0c-318.06,0 -541.92,170.84 -603.76,462.4l-132.55 615.55c-61.84,294.51 100.13,453.57 409.39,453.57z"/>
  <path class="fil0" d="M721.32 870.44c25.18,-105.18 105.99,-169.92 226.24,-169.92 470.2,0 940.38,-0.02 1410.56,-0.02l82.48 -384.88 -1503.94 0c-326.87,0 -565.52,183.27 -629.68,488.75l-0.11 0.53 -306.87 1425.95 433.74 0 161.91 -769.75 1447.85 0 82.49 -387.93 -1447.89 0 43.21 -202.73z"/>
  <rect class="fil1" transform="matrix(12.6925 -0 -0.425427 1.92308 11122 -0.00495134)" width="521.13" height="1420.83"/>
  <path class="fil2" d="M10997.36 2209.43l1337.85 0c298.29,0 527.12,-165.07 587.87,-451.3l130.35 -603.3c57.86,-286.22 -89.74,-451.2 -388.03,-451.2l-735.6 0c-83.98,0 -173.72,31.86 -249.08,95.48l115.86 -547.24 -408.28 115.84 -390.94 1841.72zm460.43 -361.91l127.44 -594.66c26.03,-115.41 110,-184.41 225.83,-184.41l686.36 0c115.86,0 170.84,60.39 147.73,178.64l-92.75 430.49c-17.35,83.52 -98.45,169.94 -220.06,169.94l-874.55 0zm3337.96 -1143.89l-859.62 0c-306.47,0 -523.66,170.84 -584.41,460.4l-127.44 587.87c-60.89,289.59 89.71,457.53 390.91,457.53l1261.67 0 75.24 -359.05 -1215.76 0c-95.02,0 -132.65,-60.85 -115.28,-136.09l23.12 -110.09 1441.62 0 95.59 -443.05c60.75,-289.55 -81.1,-457.52 -385.63,-457.52zm-11.6 498.03l-20.26 101.35 -1056.55 0 20.35 -95.48c17.37,-81.1 78.1,-147.73 188.23,-147.73l752.36 0c101.35,0 136.12,52.12 115.87,141.86zm1382.23 1007.77l677.72 0 78.1 -359.05 -593.62 0c-112.96,0 -162.21,-69.49 -141.86,-156.47l133.25 -631.24 752.82 0 75.36 -359.05 -752.95 0 72.36 -341.8 -419.93 147.73 -40.5 194.07 -550.24 0 -75.23 359.05 550.14 0 -150.5 700.86c-60.85,286.68 92.61,445.89 385.06,445.89z"/>
 </g>
</svg>
