<?xml version="1.0" encoding="UTF-8"?>
<svg id="Layer_1" xmlns="http://www.w3.org/2000/svg" version="1.1" viewBox="0 0 788 176">
  <!-- Generator: Adobe Illustrator 29.2.1, SVG Export Plug-In . SVG Version: 2.1.0 Build 116)  -->
  <defs>
    <style>
      .st0 {
        fill: #c52426;
      }

      .st1 {
        fill: #751416;
      }

      .st2 {
        fill: #fff;
      }

      .st3 {
        fill: #e12629;
      }

      .st4 {
        fill: #91191b;
      }
    </style>
  </defs>
  <g>
    <path class="st2" d="M739.7,96.1c.9,0,1.6.7,1.6,1.6s-.8,1.7-1.6,1.7-1.7-.7-1.7-1.7.8-1.6,1.7-1.6Z"/>
    <path class="st2" d="M750.3,89.7l-8-13.5h2.9l6.5,10.9,6.4-10.9h2.8l-8,13.5v9.4h-2.6v-9.4Z"/>
    <path class="st2" d="M765.9,76.3h2.6v22.9h-2.6v-22.9Z"/>
    <path class="st2" d="M775.6,76.3h2.6v20.5h9.4v2.4h-12v-22.9Z"/>
  </g>
  <g>
    <path class="st3" d="M677.2,70.1h-7.7v-8.9h17.5v54.2h-9.8v-45.3Z"/>
    <path class="st3" d="M718.7,84.3c1.9-2.4,3.2-4.8,3.2-7.5,0-4.1-3.3-7.6-7.5-7.6s-7.8,3.9-7.8,8.7h-9.8c0-9.8,7.9-17.7,17.6-17.7s17.3,7.5,17.3,16.6-.3,6.8-4.4,11.7l-14.7,18h20.6v8.9h-39.8l25.4-31.1Z"/>
  </g>
  <rect class="st2" x="656.3" y="61.3" width="1" height="55.6"/>
  <path class="st3" d="M160.1,164.8v1.9h-3.7v9.6h-2.3v-9.7h-3.7v-1.9h9.7ZM172.6,176.3l-.4-6.8c0-.9,0-2,0-3.2h-.1c-.3,1-.6,2.4-1,3.4l-2.1,6.4h-2.4l-2.1-6.6c-.2-.9-.6-2.3-.8-3.3h-.1c0,1.1,0,2.2,0,3.2l-.4,6.8h-2.2l.9-11.6h3.4l2,5.7c.3.9.5,1.7.8,2.9h0c.3-1.1.6-2,.8-2.9l2-5.7h3.3l.9,11.6h-2.3Z"/>
  <path class="st2" d="M624.2,116.4c5.5,0,10-1.3,13.5-4,3.5-2.6,5.2-6,5.2-10,.1-3.2-.9-6.4-2.8-9-1.9-2.4-5.9-5.3-12-8.5l-1.4-.7c-7.8-4.1-11.6-7.4-11.6-10.3s1-3.6,2.9-4.9,4.3-1.9,7.3-1.9c2.5,0,5,.5,7.3,1.3,2.6,1,5.1,2.3,7.4,3.8v-8c-2.3-1.2-4.6-2.1-7.1-2.7-2.4-.6-4.8-.9-7.3-.9-5.5,0-10.1,1.3-13.5,4-3.5,2.6-5.2,6-5.2,10.1,0,2.8.9,5.4,2.7,7.5,1.8,2.1,6.4,5.2,13.6,9.1,4.8,2.6,7.7,4.4,9,5.8,1.3,1.3,2,3,2,4.8,0,2.2-1.1,4.2-2.9,5.4-1.9,1.3-4.5,1.9-7.7,1.9-3,0-5.9-.7-8.7-1.9-2.9-1.5-5.6-3.4-7.9-5.6v9.3c2.4,1.7,5,3,7.8,3.8,3,.9,6.2,1.3,9.3,1.2Z"/>
  <path class="st2" d="M232.3,81.1l-18.3-21.1h-12.3v56.9h14.1v-35.5l15.3,17.8h2.1l15.3-17.8v35.5h14.2v-56.9h-12.3l-18.3,21.1ZM292.3,60l-23,56.9h15l4.2-11.2h25.5l4.7,11.2h15.2l-25.3-56.9h-16.4ZM292.4,95.7l8.4-22.1,9.2,22.1h-17.6ZM374.8,90.3c6.5-3,9.8-7.7,9.8-13.9,0-4.4-1.8-8.7-5.2-11.6-3.4-3.2-7.9-4.8-13.4-4.8h-25.4v56.9h14.2v-23.1h4.1c2,0,3.9.8,5.3,2.2,1.6,1.5,3.6,4.9,5.9,10.1,2.3,5.3,3.9,8.8,4.9,10.7h15.5c-2.4-5-4.9-10.4-7.4-16.1-2.6-5.7-5.3-9.2-8.1-10.5h0ZM367.9,81.7c-1.4,1.1-3.3,1.7-5.7,1.7h-7.5v-12.9h7.2c5.4,0,8.1,2.1,8.1,6.4.1,1.8-.7,3.6-2.1,4.8h0ZM435.4,91.2c-1.7-2.3-4-4.3-6.5-5.6-3.3-1.7-6.6-3.1-10.1-4.3-4.2-1.5-6.9-2.8-7.9-3.8-1-.7-1.6-1.9-1.6-3.1,0-1.4.8-2.5,2.3-3.4,1.5-.9,3.5-1.3,6.1-1.3,4.5,0,10.5,1.7,18,5.1v-11.1c-6.8-2.9-13.2-4.4-19.3-4.4s-11.9,1.5-15.8,4.5c-3.8,2.7-6,7.2-5.9,11.8,0,3.8.9,6.9,2.7,9.3,1.7,2.3,3.9,4.2,6.4,5.6,3.3,1.6,6.6,3,10.1,4.2,4.3,1.5,6.9,2.8,8,3.8,1,.8,1.6,2.1,1.7,3.4,0,3.5-2.8,5.2-8.3,5.2-3.2,0-6.4-.6-9.3-1.8-3.6-1.5-6.9-3.4-10.1-5.6v12.3c6.3,3.6,13.3,5.5,20.5,5.5,6.5,0,11.8-1.6,15.8-4.7,4-3.1,6-7.3,6-12.6,0-3.7-.9-6.7-2.8-9.1Z"/>
  <path class="st2" d="M447.8,115.7v-54.2h15.9c5.4,0,9.6,1.2,12.5,3.7,2.9,2.5,4.4,5.9,4.4,10.5,0,2.5-.6,4.9-2,7-1.5,2-3.6,3.5-6,4.3,4,.9,7,2.6,9.2,5.1,2.2,2.5,3.3,5.7,3.2,9,0,4.5-1.6,8.1-4.9,10.7-3.3,2.7-7.8,4-13.4,4h-18.8ZM455.5,84.7h5.2c4,0,6.9-.7,8.8-2.1,1.9-1.4,2.9-3.6,2.9-6.5,0-2.7-.8-4.6-2.3-5.8s-3.9-1.8-7.2-1.8h-7.4v16.3ZM455.5,91.8v16.8h10.3c3.8,0,6.5-.7,8.3-2,1.7-1.3,2.6-3.4,2.6-6.3,0-2.9-1-5.1-2.9-6.5-2-1.4-5-2.1-9.2-2.1h-9.1Z"/>
  <path class="st2" d="M486.2,115.7l23.5-54.2h5.7l23.8,54.2h-8l-7-16h-23.1l-6.9,16h-7.9ZM504.1,92.7h16.9l-8.6-19.5-8.3,19.5Z"/>
  <rect class="st2" x="592.4" y="61.4" width="7.7" height="7"/>
  <rect class="st2" x="592.4" y="73.2" width="7.7" height="42.5"/>
  <polygon class="st2" points="576.3 61.3 576.3 84.8 551 84.8 551 61.3 543.3 61.3 543.3 115.5 551 115.5 551 92.1 576.3 92.1 576.3 115.5 584 115.5 584 61.3 576.3 61.3"/>
  <polygon class="st0" points="152.6 23.2 176.1 64 176.1 111.1 152.6 151.8 111.8 175.4 64.7 175.4 23.9 151.8 .4 111.1 .4 64 23.9 23.2 64.7 -.3 111.8 -.3 152.6 23.2"/>
  <polygon class="st0" points="174.7 64.4 174.7 110.7 165.2 127.1 139.3 82.2 174.7 64.4"/>
  <polygon class="st3" points="151.5 24.3 174.7 64.4 139.3 82.2 122.6 37.8 151.5 24.3"/>
  <polygon class="st4" points="165.2 127.1 151.5 150.8 139.3 82.2 165.2 127.1"/>
  <polygon class="st0" points="139.3 82.2 151.5 150.8 111.4 174 97.8 121.4 139.3 82.2"/>
  <polygon class="st0" points="151.5 24.3 122.6 37.8 83.2 29.9 111.4 1.1 151.5 24.3"/>
  <polygon class="st0" points="122.6 37.8 139.3 82.2 88.9 75.6 122.6 37.8"/>
  <polygon class="st4" points="139.3 82.2 97.8 121.4 60.4 108 88.9 75.6 139.3 82.2"/>
  <polygon class="st4" points="122.6 37.8 88.9 75.6 83.2 29.9 122.6 37.8"/>
  <polygon class="st3" points="111.4 1.1 83.2 29.9 65.1 1.1 111.4 1.1"/>
  <polygon class="st4" points="97.8 121.4 111.4 174 68 148.9 97.8 121.4"/>
  <polygon class="st1" points="68 148.9 111.4 174 65.1 174 25 150.8 40 132.7 68 148.9"/>
  <polygon class="st0" points="97.8 121.4 68 148.9 40 132.7 60.4 108 97.8 121.4"/>
  <polygon class="st3" points="83.2 29.9 88.9 75.6 44.3 69.9 44.2 69.7 83.2 29.9"/>
  <polygon class="st0" points="88.9 75.6 60.4 108 44.3 69.9 88.9 75.6"/>
  <polygon class="st0" points="65.1 1.1 83.2 29.9 44.2 69.7 25 24.3 65.1 1.1"/>
  <polygon class="st1" points="44.3 69.9 60.4 108 40 132.7 1.8 110.7 1.8 64.4 44.3 69.9"/>
  <polygon class="st4" points="44.2 69.7 44.3 69.9 1.8 64.4 25 24.3 44.2 69.7"/>
  <polygon class="st4" points="40 132.7 25 150.8 1.8 110.7 40 132.7"/>
  <path class="st2" d="M62.1,47h-17.6v81h20.3v-50.6l22,25.4h3l22-25.4v50.6h20.3V47h-17.6l-26.2,30.1-26.2-30.1Z"/>
</svg>